<svg width="43" height="43" viewBox="0 0 43 43" fill="none" xmlns="http://www.w3.org/2000/svg">
<path d="M0.00390625 34.3149L9.10003 25.2188L11.1837 27.3024L5.60448 32.8816" fill="#20A090"/>
<path d="M42.2289 34.3149L35.0538 36.4071L32.491 42.8976L24.948 35.3503L21.8418 32.2484L23.9254 30.1647L28.1612 34.4047L31.4 37.6436L32.8419 33.9854L36.6283 32.8816L31.0492 27.3024L33.1328 25.2188L36.2861 28.372L42.2289 34.3149Z" fill="#20A090"/>
<path style="mix-blend-mode:multiply" d="M33.1335 25.2188L31.0499 27.3024L34.2887 30.5455C35.0071 29.8722 35.6736 29.1457 36.2825 28.372L33.1335 25.2188ZM21.8425 32.2483L24.9444 35.3503C26.0434 35.1334 27.1203 34.8169 28.1619 34.4047L23.9261 30.1647L21.8425 32.2483ZM5.98633 28.3378C6.59118 29.1136 7.25797 29.839 7.98012 30.507L11.1847 27.3024L9.10109 25.2188L5.98633 28.3378Z" fill="url(#paint0_radial_2255_5235)"/>
<path d="M21.1449 0.12082C17.454 0.126266 13.8738 1.3818 10.9879 3.68277C8.10206 5.98373 6.08071 9.19442 5.25343 12.7914C4.42614 16.3884 4.8417 20.1595 6.43236 23.4901C8.02302 26.8206 10.695 29.5141 14.0126 31.1315L16.3744 28.9495C13.33 27.7847 10.8158 25.5482 9.30414 22.6603C7.79252 19.7724 7.38757 16.4319 8.16536 13.2665C8.94315 10.101 10.8502 7.3286 13.528 5.47013C16.2059 3.61165 19.4703 2.79508 22.7078 3.17384C25.9453 3.55261 28.9331 5.10065 31.1096 7.52706C33.2862 9.95347 34.5017 13.0912 34.5279 16.3507C34.554 19.6102 33.3889 22.767 31.2515 25.228C29.1141 27.689 26.1515 29.2847 22.9205 29.7153C22.3318 29.7929 21.7387 29.8315 21.1449 29.8308C20.8326 29.8308 20.5202 29.8308 20.2165 29.8009C19.7501 29.7666 19.2923 29.711 18.8388 29.634L16.4 32.0728C17.4812 32.4026 18.594 32.6177 19.7202 32.7145H19.9041C20.332 32.7445 20.7299 32.7616 21.1449 32.7616C23.3115 32.7967 25.4634 32.4002 27.4753 31.5954C29.4871 30.7905 31.3187 29.5933 32.8632 28.0736C34.4078 26.5538 35.6345 24.7419 36.4718 22.7433C37.3091 20.7447 37.7403 18.5995 37.7403 16.4327C37.7403 14.2658 37.3091 12.1206 36.4718 10.122C35.6345 8.12346 34.4078 6.31151 32.8632 4.79175C31.3187 3.27199 29.4871 2.0748 27.4753 1.26994C25.4634 0.465076 23.3115 0.0686301 21.1449 0.103702V0.12082Z" fill="#20A090"/>
<path d="M21.1485 20.976C20.2522 20.9768 19.3758 20.7118 18.6301 20.2144C17.8844 19.7171 17.303 19.0097 16.9594 18.1819C16.6158 17.3541 16.5255 16.4429 16.6998 15.5637C16.8742 14.6845 17.3054 13.8768 17.9389 13.2427C18.5723 12.6086 19.3797 12.1766 20.2587 12.0014C21.1377 11.8263 22.049 11.9157 22.8772 12.2586C23.7053 12.6014 24.4132 13.1821 24.9113 13.9273C25.4093 14.6725 25.6752 15.5487 25.6752 16.445C25.6741 17.6456 25.1969 18.7968 24.3484 19.6461C23.4998 20.4955 22.3491 20.9737 21.1485 20.976ZM21.1485 14.862C20.8342 14.8611 20.5267 14.9536 20.265 15.1277C20.0033 15.3018 19.7992 15.5496 19.6786 15.8399C19.5579 16.1301 19.5261 16.4496 19.5872 16.7579C19.6483 17.0662 19.7996 17.3494 20.0218 17.5717C20.2441 17.7939 20.5273 17.9452 20.8356 18.0063C21.1439 18.0674 21.4634 18.0356 21.7537 17.915C22.0439 17.7943 22.2917 17.5902 22.4658 17.3285C22.6399 17.0668 22.7324 16.7593 22.7316 16.445C22.7304 16.0255 22.5633 15.6235 22.2666 15.3269C21.97 15.0302 21.568 14.8631 21.1485 14.862Z" fill="#20A090"/>
<path d="M5.60485 32.8742L9.38706 33.978L10.8332 37.6362L26.5739 21.8955C27.7661 20.7128 28.5391 19.1727 28.775 17.51C29.0109 15.8473 28.6969 14.153 27.8807 12.6853C27.0646 11.2176 25.791 10.0569 24.2541 9.38002C22.7172 8.70314 21.0011 8.54719 19.3674 8.93593C17.7336 9.32466 16.2717 10.2368 15.2043 11.5333C14.1369 12.8299 13.5226 14.4398 13.455 16.1178C13.3873 17.7958 13.87 19.4499 14.8295 20.8282C15.789 22.2065 17.1727 23.2333 18.7698 23.7524L21.1615 24.5311L18.8896 26.6233L16.391 28.9294L14.7865 30.4097L12.7799 28.2619L13.61 27.4961L15.6808 25.5836C13.7805 24.4465 12.2828 22.7444 11.3966 20.715C10.5105 18.6856 10.2801 16.4301 10.7376 14.2634C11.1952 12.0968 12.3178 10.127 13.9489 8.62921C15.5799 7.13138 17.638 6.18021 19.8357 5.90848C22.0334 5.63675 24.2611 6.05804 26.2079 7.11351C28.1546 8.16898 29.7232 9.80597 30.6947 11.796C31.6662 13.7859 31.992 16.0296 31.6268 18.2137C31.2616 20.3979 30.2235 22.4135 28.6575 23.9791L22.9243 29.7123L19.9036 32.7373L17.298 35.3386L9.7379 42.8987L7.17079 36.4082L0 34.3203" fill="#20A090"/>
<defs>
<radialGradient id="paint0_radial_2255_5235" cx="0" cy="0" r="1" gradientUnits="userSpaceOnUse" gradientTransform="translate(21.2093 16.3665) scale(19.3261 19.326)">
<stop offset="0.62"/>
<stop offset="0.99" stop-color="#014AE2" stop-opacity="0.08"/>
<stop offset="1" stop-color="#0150F5" stop-opacity="0"/>
</radialGradient>
</defs>
</svg>
